<mxfile host="app.diagrams.net" modified="2024-05-31T08:04:57.834Z" agent="Mozilla/5.0 (Windows NT 10.0; Win64; x64) AppleWebKit/537.36 (KHTML, like Gecko) Chrome/125.0.0.0 Safari/537.36" etag="OAFCaHPts_0Ui6hP3L_o" version="24.4.9" type="device">
  <diagram name="페이지-1" id="DlQRHxOjIHaxaJh4YTPa">
    <mxGraphModel dx="794" dy="724" grid="1" gridSize="10" guides="1" tooltips="1" connect="1" arrows="1" fold="1" page="1" pageScale="1" pageWidth="827" pageHeight="1169" math="0" shadow="0">
      <root>
        <mxCell id="0" />
        <mxCell id="1" parent="0" />
        <mxCell id="eUK8ppFZYGkXxTk8Se6K-1" value="댓글게시판" style="whiteSpace=wrap;html=1;" vertex="1" parent="1">
          <mxGeometry x="280" y="120" width="80" height="40" as="geometry" />
        </mxCell>
        <mxCell id="eUK8ppFZYGkXxTk8Se6K-2" value="작성일" style="ellipse;whiteSpace=wrap;html=1;" vertex="1" parent="1">
          <mxGeometry x="334" y="190" width="80" height="40" as="geometry" />
        </mxCell>
        <mxCell id="eUK8ppFZYGkXxTk8Se6K-3" value="글내용" style="ellipse;whiteSpace=wrap;html=1;" vertex="1" parent="1">
          <mxGeometry x="230" y="190" width="80" height="40" as="geometry" />
        </mxCell>
        <mxCell id="eUK8ppFZYGkXxTk8Se6K-4" value="작성자" style="ellipse;whiteSpace=wrap;html=1;" vertex="1" parent="1">
          <mxGeometry x="160" y="120" width="80" height="40" as="geometry" />
        </mxCell>
        <mxCell id="eUK8ppFZYGkXxTk8Se6K-5" value="조회수" style="ellipse;whiteSpace=wrap;html=1;" vertex="1" parent="1">
          <mxGeometry x="230" y="50" width="80" height="40" as="geometry" />
        </mxCell>
        <mxCell id="eUK8ppFZYGkXxTk8Se6K-6" value="회원" style="whiteSpace=wrap;html=1;" vertex="1" parent="1">
          <mxGeometry x="560" y="120" width="80" height="40" as="geometry" />
        </mxCell>
        <mxCell id="eUK8ppFZYGkXxTk8Se6K-7" value="노출여부" style="ellipse;whiteSpace=wrap;html=1;" vertex="1" parent="1">
          <mxGeometry x="334" y="50" width="80" height="40" as="geometry" />
        </mxCell>
        <mxCell id="eUK8ppFZYGkXxTk8Se6K-8" value="좋아요" style="ellipse;whiteSpace=wrap;html=1;" vertex="1" parent="1">
          <mxGeometry x="400" y="120" width="80" height="40" as="geometry" />
        </mxCell>
      </root>
    </mxGraphModel>
  </diagram>
</mxfile>
